<?xml version="1.0" encoding="utf-8"?>
<svg viewBox="0 0.0012 94.54 94.32" xmlns="http://www.w3.org/2000/svg">
  <g transform="matrix(0.023635001853108406, 0, 0, -0.023580001667141918, 0, 94.32124609712491)" fill="#000000" stroke="none" style="">
    <path d="M0 2000 l0 -2000 2000 0 2000 0 0 2000 0 2000 -2000 0 -2000 0 0&#10;-2000z m2071 1612 l26 -77 94 -5 94 -5 -72 -50 c-40 -27 -73 -57 -73 -66 0 -8&#10;11 -48 25 -88 14 -41 24 -75 22 -77 -2 -2 -34 19 -72 46 -38 28 -73 50 -78 50&#10;-5 0 -40 -23 -78 -50 -38 -28 -69 -46 -69 -40 0 5 11 44 25 87 13 43 21 81 17&#10;85 -4 3 -38 29 -77 57 l-70 51 96 0 95 0 28 86 c16 47 31 82 35 79 3 -4 18&#10;-41 32 -83z m149 -547 c266 -31 548 -177 744 -385 156 -167 258 -358 317 -595&#10;29 -117 37 -359 15 -485 -21 -120 -74 -279 -127 -380 -65 -126 -52 -127 -152&#10;5 -48 64 -87 119 -87 123 0 4 16 46 36 92 19 47 47 132 62 190 23 92 26 125&#10;26 265 0 232 -36 382 -140 574 -147 271 -405 484 -694 571 -95 29 -127 42 -85&#10;36 17 -3 55 -8 85 -11z m-377 -587 c36 -20 102 -72 160 -127 59 -57 117 -103&#10;147 -117 48 -22 134 -84 127 -91 -2 -2 -20 4 -40 12 -39 16 -77 20 -77 7 0 -4&#10;16 -16 35 -26 19 -10 42 -27 52 -38 16 -18 15 -20 -19 -55 -42 -42 -55 -38&#10;-89 29 -34 67 -52 41 -24 -37 8 -21 13 -41 11 -42 -6 -7 -86 111 -101 150 -9&#10;24 -33 56 -55 73 -59 47 -146 152 -180 215 -48 91 -41 97 53 47z m569 -600&#10;c437 -462 720 -825 850 -1093 144 -298 5 -342 -360 -115 -56 36 -102 67 -102&#10;70 0 3 11 13 25 22 23 17 26 17 90 -13 43 -21 88 -33 129 -36 58 -5 64 -4 80&#10;18 23 33 20 78 -9 155 -82 217 -373 604 -742 985 -68 70 -123 132 -123 138 0&#10;30 39 -1 162 -131z m542 -763 c36 -54 66 -106 66 -114 0 -20 -137 -153 -225&#10;-219 -89 -65 -256 -152 -360 -185 -254 -82 -538 -83 -794 -2 -151 48 -335 155&#10;-460 269 -62 56 -172 178 -166 185 3 2 29 -19 59 -46 299 -274 768 -367 1170&#10;-232 227 76 435 225 576 412 51 68 41 73 134 -68z m-1864 -255 c38 -38 14&#10;-100 -40 -100 -56 0 -83 51 -49 93 25 32 61 35 89 7z m-170 -125 c59 -30 80&#10;-127 39 -179 -26 -33 -70 -56 -107 -56 -35 0 -92 37 -109 70 -29 57 -5 137 49&#10;166 31 18 93 17 128 -1z"/>
    <path d="M2019 3552 l-15 -47 -58 -5 -59 -5 47 -34 c35 -24 45 -38 41 -50 -34&#10;-83 -31 -94 18 -57 42 32 45 32 87 1 19 -14 37 -25 41 -25 4 0 0 23 -9 50 -15&#10;48 -15 51 4 64 10 8 30 23 44 35 l25 20 -57 1 -58 0 -11 45 c-6 25 -15 47 -19&#10;50 -4 2 -13 -17 -21 -43z"/>
  </g>
</svg>